<mxfile host="65bd71144e">
    <diagram id="_RNh6TZqomyYQKHfPjti" name="Page-1">
        <mxGraphModel dx="1716" dy="2244" grid="1" gridSize="10" guides="1" tooltips="1" connect="1" arrows="1" fold="1" page="1" pageScale="1" pageWidth="850" pageHeight="1100" math="0" shadow="0">
            <root>
                <mxCell id="0"/>
                <mxCell id="1" parent="0"/>
                <mxCell id="130" value="" style="edgeStyle=orthogonalEdgeStyle;html=1;" edge="1" parent="1" source="5" target="129">
                    <mxGeometry relative="1" as="geometry"/>
                </mxCell>
                <mxCell id="132" style="edgeStyle=orthogonalEdgeStyle;html=1;entryX=0.599;entryY=1.015;entryDx=0;entryDy=0;entryPerimeter=0;" edge="1" parent="1" source="5" target="116">
                    <mxGeometry relative="1" as="geometry"/>
                </mxCell>
                <mxCell id="133" style="edgeStyle=orthogonalEdgeStyle;html=1;entryX=0.666;entryY=0.997;entryDx=0;entryDy=0;entryPerimeter=0;" edge="1" parent="1" source="5" target="121">
                    <mxGeometry relative="1" as="geometry">
                        <Array as="points">
                            <mxPoint x="353" y="250"/>
                            <mxPoint x="693" y="250"/>
                        </Array>
                    </mxGeometry>
                </mxCell>
                <mxCell id="134" value="1" style="edgeStyle=orthogonalEdgeStyle;html=1;entryX=0.444;entryY=1.013;entryDx=0;entryDy=0;entryPerimeter=0;" edge="1" parent="1" source="5" target="111">
                    <mxGeometry relative="1" as="geometry">
                        <Array as="points">
                            <mxPoint x="352" y="270"/>
                            <mxPoint x="243" y="270"/>
                        </Array>
                    </mxGeometry>
                </mxCell>
                <mxCell id="135" value="1" style="edgeStyle=orthogonalEdgeStyle;html=1;entryX=0.593;entryY=1.039;entryDx=0;entryDy=0;entryPerimeter=0;" edge="1" parent="1" source="5" target="126">
                    <mxGeometry relative="1" as="geometry">
                        <Array as="points">
                            <mxPoint x="353" y="260"/>
                            <mxPoint x="75" y="260"/>
                        </Array>
                    </mxGeometry>
                </mxCell>
                <mxCell id="5" value="Record" style="swimlane;whiteSpace=wrap;html=1;" parent="1" vertex="1">
                    <mxGeometry x="230" y="310" width="245" height="230" as="geometry"/>
                </mxCell>
                <mxCell id="8" value="+ name: Field&amp;nbsp; &amp;nbsp;&amp;nbsp;&lt;br&gt;+ email: Field&amp;nbsp; &amp;nbsp;&amp;nbsp;&lt;br&gt;+ address: Field&lt;br&gt;+ phone: Field&amp;nbsp; &amp;nbsp;&lt;br&gt;+ birthday: Field" style="text;html=1;align=center;verticalAlign=middle;resizable=0;points=[];autosize=1;strokeColor=none;fillColor=none;" vertex="1" parent="5">
                    <mxGeometry x="-5" y="20" width="110" height="90" as="geometry"/>
                </mxCell>
                <mxCell id="11" value="- __init__&amp;nbsp;&lt;span style=&quot;white-space: pre;&quot;&gt;&#9;&lt;/span&gt;&lt;span style=&quot;white-space: pre;&quot;&gt;&#9;&lt;/span&gt;&lt;span style=&quot;white-space: pre;&quot;&gt;&#9;&lt;/span&gt;&lt;span style=&quot;white-space: pre;&quot;&gt;&#9;&lt;/span&gt;&lt;span style=&quot;white-space: pre;&quot;&gt;&#9;&lt;/span&gt;&lt;span style=&quot;white-space: pre;&quot;&gt;&#9;&lt;/span&gt;&amp;nbsp;&lt;br&gt;&lt;span style=&quot;&quot;&gt;&#9;&lt;/span&gt;&lt;span style=&quot;&quot;&gt;&#9;&lt;/span&gt;+ add_phone(phone)&amp;nbsp;&lt;span style=&quot;white-space: pre;&quot;&gt;&#9;&lt;/span&gt;&lt;span style=&quot;white-space: pre;&quot;&gt;&#9;&lt;/span&gt;&lt;span style=&quot;white-space: pre;&quot;&gt;&#9;&lt;/span&gt;&lt;span style=&quot;white-space: pre;&quot;&gt;&#9;&lt;/span&gt;&amp;nbsp;&amp;nbsp;&lt;br&gt;+ add_email(email)&amp;nbsp;&amp;nbsp;&lt;span style=&quot;white-space: pre;&quot;&gt;&#9;&lt;/span&gt;&lt;span style=&quot;white-space: pre;&quot;&gt;&#9;&lt;/span&gt;&lt;span style=&quot;white-space: pre;&quot;&gt;&#9;&lt;/span&gt;&lt;span style=&quot;white-space: pre;&quot;&gt;&#9;&lt;/span&gt;&amp;nbsp;&amp;nbsp;&lt;br&gt;+ change_phone(old_phone, new_phone)&lt;br&gt;+ days_to_birthday&lt;span style=&quot;white-space: pre;&quot;&gt;&#9;&lt;/span&gt;&lt;span style=&quot;white-space: pre;&quot;&gt;&#9;&lt;/span&gt;&lt;span style=&quot;white-space: pre;&quot;&gt;&#9;&lt;/span&gt;&lt;span style=&quot;white-space: pre;&quot;&gt;&#9;&lt;/span&gt;&lt;span style=&quot;white-space: pre;&quot;&gt;&#9;&lt;/span&gt;&amp;nbsp;&amp;nbsp;&lt;br&gt;- __str__&lt;span style=&quot;white-space: pre;&quot;&gt;&#9;&lt;/span&gt;&lt;span style=&quot;white-space: pre;&quot;&gt;&#9;&lt;/span&gt;&lt;span style=&quot;white-space: pre;&quot;&gt;&#9;&lt;/span&gt;&lt;span style=&quot;white-space: pre;&quot;&gt;&#9;&lt;/span&gt;&lt;span style=&quot;white-space: pre;&quot;&gt;&#9;&lt;/span&gt;&lt;span style=&quot;white-space: pre;&quot;&gt;&#9;&lt;/span&gt;&lt;span style=&quot;white-space: pre;&quot;&gt;&#9;&lt;/span&gt;&amp;nbsp;" style="text;html=1;align=center;verticalAlign=middle;resizable=0;points=[];autosize=1;strokeColor=none;fillColor=none;" vertex="1" parent="5">
                    <mxGeometry x="-5" y="110" width="250" height="100" as="geometry"/>
                </mxCell>
                <mxCell id="7" style="edgeStyle=none;shape=link;html=1;width=0;entryX=0.999;entryY=-0.002;entryDx=0;entryDy=0;entryPerimeter=0;" parent="1" target="11" edge="1">
                    <mxGeometry relative="1" as="geometry">
                        <mxPoint x="230" y="420" as="sourcePoint"/>
                        <mxPoint x="470" y="420" as="targetPoint"/>
                    </mxGeometry>
                </mxCell>
                <mxCell id="91" value="1" style="edgeStyle=orthogonalEdgeStyle;html=1;startArrow=none;" edge="1" parent="1" source="92">
                    <mxGeometry relative="1" as="geometry">
                        <mxPoint x="360.0000000000002" y="540" as="targetPoint"/>
                        <Array as="points">
                            <mxPoint x="160" y="700"/>
                            <mxPoint x="360" y="700"/>
                        </Array>
                    </mxGeometry>
                </mxCell>
                <mxCell id="178" style="edgeStyle=orthogonalEdgeStyle;html=1;entryX=0.476;entryY=0.996;entryDx=0;entryDy=0;entryPerimeter=0;startArrow=none;" edge="1" parent="1" source="179" target="176">
                    <mxGeometry relative="1" as="geometry">
                        <mxPoint x="5" y="480" as="targetPoint"/>
                    </mxGeometry>
                </mxCell>
                <mxCell id="78" value="AddressBook" style="shape=table;startSize=30;container=1;collapsible=0;childLayout=tableLayout;" vertex="1" parent="1">
                    <mxGeometry x="-140" y="590" width="290" height="250" as="geometry"/>
                </mxCell>
                <mxCell id="79" value="" style="shape=tableRow;horizontal=0;startSize=0;swimlaneHead=0;swimlaneBody=0;top=0;left=0;bottom=0;right=0;collapsible=0;dropTarget=0;fillColor=none;points=[[0,0.5],[1,0.5]];portConstraint=eastwest;" vertex="1" parent="78">
                    <mxGeometry y="30" width="290" height="98" as="geometry"/>
                </mxCell>
                <mxCell id="80" value="+ file_path&lt;br&gt;+ record&lt;br&gt;+ data" style="shape=partialRectangle;html=1;whiteSpace=wrap;connectable=0;overflow=hidden;fillColor=none;top=0;left=0;bottom=0;right=0;pointerEvents=1;align=left;" vertex="1" parent="79">
                    <mxGeometry width="290" height="98" as="geometry">
                        <mxRectangle width="290" height="98" as="alternateBounds"/>
                    </mxGeometry>
                </mxCell>
                <mxCell id="81" value="" style="shape=tableRow;horizontal=0;startSize=0;swimlaneHead=0;swimlaneBody=0;top=0;left=0;bottom=0;right=0;collapsible=0;dropTarget=0;fillColor=none;points=[[0,0.5],[1,0.5]];portConstraint=eastwest;" vertex="1" parent="78">
                    <mxGeometry y="128" width="290" height="122" as="geometry"/>
                </mxCell>
                <mxCell id="82" value="-&amp;nbsp; __init__&lt;br&gt;+&amp;nbsp; add_record(name, phone, birthday, email)&amp;nbsp;&lt;br&gt;+ get(name: str)&lt;br&gt;+ get_all_contacts&lt;br&gt;+ save_data&lt;br&gt;+ load_data&lt;br&gt;- __iter__" style="shape=partialRectangle;html=1;whiteSpace=wrap;connectable=0;overflow=hidden;fillColor=none;top=0;left=0;bottom=0;right=0;pointerEvents=1;align=left;" vertex="1" parent="81">
                    <mxGeometry width="290" height="122" as="geometry">
                        <mxRectangle width="290" height="122" as="alternateBounds"/>
                    </mxGeometry>
                </mxCell>
                <mxCell id="94" value="1" style="edgeStyle=orthogonalEdgeStyle;html=1;" edge="1" parent="1" source="92">
                    <mxGeometry relative="1" as="geometry">
                        <mxPoint x="480" y="715" as="targetPoint"/>
                        <Array as="points">
                            <mxPoint x="360" y="715"/>
                            <mxPoint x="360" y="715"/>
                        </Array>
                    </mxGeometry>
                </mxCell>
                <mxCell id="92" value="" style="rhombus;whiteSpace=wrap;html=1;" vertex="1" parent="1">
                    <mxGeometry x="150" y="705" width="20" height="20" as="geometry"/>
                </mxCell>
                <mxCell id="95" value="AddressBookIterator" style="shape=table;startSize=30;container=1;collapsible=0;childLayout=tableLayout;" vertex="1" parent="1">
                    <mxGeometry x="480" y="640" width="130" height="130" as="geometry"/>
                </mxCell>
                <mxCell id="96" value="" style="shape=tableRow;horizontal=0;startSize=0;swimlaneHead=0;swimlaneBody=0;top=0;left=0;bottom=0;right=0;collapsible=0;dropTarget=0;fillColor=none;points=[[0,0.5],[1,0.5]];portConstraint=eastwest;" vertex="1" parent="95">
                    <mxGeometry y="30" width="130" height="50" as="geometry"/>
                </mxCell>
                <mxCell id="97" value="+ record&lt;br&gt;&lt;div style=&quot;&quot;&gt;&lt;span style=&quot;background-color: initial;&quot;&gt;- index&lt;/span&gt;&lt;/div&gt;" style="shape=partialRectangle;html=1;whiteSpace=wrap;connectable=0;overflow=hidden;fillColor=none;top=0;left=0;bottom=0;right=0;pointerEvents=1;align=left;" vertex="1" parent="96">
                    <mxGeometry width="130" height="50" as="geometry">
                        <mxRectangle width="130" height="50" as="alternateBounds"/>
                    </mxGeometry>
                </mxCell>
                <mxCell id="98" value="" style="shape=tableRow;horizontal=0;startSize=0;swimlaneHead=0;swimlaneBody=0;top=0;left=0;bottom=0;right=0;collapsible=0;dropTarget=0;fillColor=none;points=[[0,0.5],[1,0.5]];portConstraint=eastwest;" vertex="1" parent="95">
                    <mxGeometry y="80" width="130" height="50" as="geometry"/>
                </mxCell>
                <mxCell id="99" value="- __init__(records)&lt;br&gt;- __iter__&lt;br&gt;- __next__" style="shape=partialRectangle;html=1;whiteSpace=wrap;connectable=0;overflow=hidden;fillColor=none;top=0;left=0;bottom=0;right=0;pointerEvents=1;align=left;" vertex="1" parent="98">
                    <mxGeometry width="130" height="50" as="geometry">
                        <mxRectangle width="130" height="50" as="alternateBounds"/>
                    </mxGeometry>
                </mxCell>
                <mxCell id="100" value="Field" style="shape=table;startSize=30;container=1;collapsible=0;childLayout=tableLayout;" vertex="1" parent="1">
                    <mxGeometry x="267.5" y="-155" width="170" height="154.99999999999994" as="geometry"/>
                </mxCell>
                <mxCell id="101" value="" style="shape=tableRow;horizontal=0;startSize=0;swimlaneHead=0;swimlaneBody=0;top=0;left=0;bottom=0;right=0;collapsible=0;dropTarget=0;fillColor=none;points=[[0,0.5],[1,0.5]];portConstraint=eastwest;" vertex="1" parent="100">
                    <mxGeometry y="30" width="170" height="40" as="geometry"/>
                </mxCell>
                <mxCell id="102" value="+ _value: None" style="shape=partialRectangle;html=1;whiteSpace=wrap;connectable=0;overflow=hidden;fillColor=none;top=0;left=0;bottom=0;right=0;pointerEvents=1;align=left;" vertex="1" parent="101">
                    <mxGeometry width="170" height="40" as="geometry">
                        <mxRectangle width="170" height="40" as="alternateBounds"/>
                    </mxGeometry>
                </mxCell>
                <mxCell id="103" value="" style="shape=tableRow;horizontal=0;startSize=0;swimlaneHead=0;swimlaneBody=0;top=0;left=0;bottom=0;right=0;collapsible=0;dropTarget=0;fillColor=none;points=[[0,0.5],[1,0.5]];portConstraint=eastwest;" vertex="1" parent="100">
                    <mxGeometry y="70" width="170" height="85" as="geometry"/>
                </mxCell>
                <mxCell id="104" value="- __init__&lt;br&gt;+ value&lt;br&gt;+ value(new_value): str&lt;br&gt;- __str__: str&lt;br&gt;- __repr__: str" style="shape=partialRectangle;html=1;whiteSpace=wrap;connectable=0;overflow=hidden;fillColor=none;top=0;left=0;bottom=0;right=0;pointerEvents=1;align=left;" vertex="1" parent="103">
                    <mxGeometry width="170" height="85" as="geometry">
                        <mxRectangle width="170" height="85" as="alternateBounds"/>
                    </mxGeometry>
                </mxCell>
                <mxCell id="141" value="1" style="edgeStyle=orthogonalEdgeStyle;html=1;" edge="1" parent="1" source="108">
                    <mxGeometry relative="1" as="geometry">
                        <mxPoint x="360" as="targetPoint"/>
                        <Array as="points">
                            <mxPoint x="251" y="40"/>
                            <mxPoint x="360" y="40"/>
                        </Array>
                    </mxGeometry>
                </mxCell>
                <mxCell id="108" value="Phone" style="shape=table;startSize=30;container=1;collapsible=0;childLayout=tableLayout;" vertex="1" parent="1">
                    <mxGeometry x="180" y="80" width="142.5" height="140" as="geometry"/>
                </mxCell>
                <mxCell id="109" value="" style="shape=tableRow;horizontal=0;startSize=0;swimlaneHead=0;swimlaneBody=0;top=0;left=0;bottom=0;right=0;collapsible=0;dropTarget=0;fillColor=none;points=[[0,0.5],[1,0.5]];portConstraint=eastwest;" vertex="1" parent="108">
                    <mxGeometry y="30" width="142.5" height="30" as="geometry"/>
                </mxCell>
                <mxCell id="110" value="- value: None" style="shape=partialRectangle;html=1;whiteSpace=wrap;connectable=0;overflow=hidden;fillColor=none;top=0;left=0;bottom=0;right=0;pointerEvents=1;align=left;" vertex="1" parent="109">
                    <mxGeometry width="143" height="30" as="geometry">
                        <mxRectangle width="143" height="30" as="alternateBounds"/>
                    </mxGeometry>
                </mxCell>
                <mxCell id="111" value="" style="shape=tableRow;horizontal=0;startSize=0;swimlaneHead=0;swimlaneBody=0;top=0;left=0;bottom=0;right=0;collapsible=0;dropTarget=0;fillColor=none;points=[[0,0.5],[1,0.5]];portConstraint=eastwest;" vertex="1" parent="108">
                    <mxGeometry y="60" width="142.5" height="80" as="geometry"/>
                </mxCell>
                <mxCell id="112" value="- __init__(value): None&lt;br&gt;+ value&lt;br&gt;+ value(value)&lt;br&gt;+ __str__: str&lt;br&gt;+ __eq__(__value):bool" style="shape=partialRectangle;html=1;whiteSpace=wrap;connectable=0;overflow=hidden;fillColor=none;top=0;left=0;bottom=0;right=0;pointerEvents=1;align=left;" vertex="1" parent="111">
                    <mxGeometry width="143" height="80" as="geometry">
                        <mxRectangle width="143" height="80" as="alternateBounds"/>
                    </mxGeometry>
                </mxCell>
                <mxCell id="129" value="" style="rhombus;whiteSpace=wrap;html=1;fontStyle=1;startSize=23;" vertex="1" parent="111">
                    <mxGeometry x="143" width="NaN" height="80" as="geometry">
                        <mxRectangle width="NaN" height="80" as="alternateBounds"/>
                    </mxGeometry>
                </mxCell>
                <mxCell id="142" value="1" style="edgeStyle=orthogonalEdgeStyle;html=1;" edge="1" parent="1" source="113">
                    <mxGeometry relative="1" as="geometry">
                        <mxPoint x="360" as="targetPoint"/>
                        <Array as="points">
                            <mxPoint x="463" y="40"/>
                            <mxPoint x="360" y="40"/>
                        </Array>
                    </mxGeometry>
                </mxCell>
                <mxCell id="113" value="Birthday" style="shape=table;startSize=30;container=1;collapsible=0;childLayout=tableLayout;" vertex="1" parent="1">
                    <mxGeometry x="400" y="80" width="125" height="140" as="geometry"/>
                </mxCell>
                <mxCell id="114" value="" style="shape=tableRow;horizontal=0;startSize=0;swimlaneHead=0;swimlaneBody=0;top=0;left=0;bottom=0;right=0;collapsible=0;dropTarget=0;fillColor=none;points=[[0,0.5],[1,0.5]];portConstraint=eastwest;" vertex="1" parent="113">
                    <mxGeometry y="30" width="125" height="42" as="geometry"/>
                </mxCell>
                <mxCell id="115" value="- _value: None" style="shape=partialRectangle;html=1;whiteSpace=wrap;connectable=0;overflow=hidden;fillColor=none;top=0;left=0;bottom=0;right=0;pointerEvents=1;align=left;" vertex="1" parent="114">
                    <mxGeometry width="125" height="42" as="geometry">
                        <mxRectangle width="125" height="42" as="alternateBounds"/>
                    </mxGeometry>
                </mxCell>
                <mxCell id="116" value="" style="shape=tableRow;horizontal=0;startSize=0;swimlaneHead=0;swimlaneBody=0;top=0;left=0;bottom=0;right=0;collapsible=0;dropTarget=0;fillColor=none;points=[[0,0.5],[1,0.5]];portConstraint=eastwest;" vertex="1" parent="113">
                    <mxGeometry y="72" width="125" height="68" as="geometry"/>
                </mxCell>
                <mxCell id="117" value="- __init__(value): None&lt;br&gt;+ value&lt;br&gt;+value(value)&lt;br&gt;+ __str__: str&lt;br&gt;&lt;div style=&quot;&quot;&gt;&lt;br&gt;&lt;/div&gt;" style="shape=partialRectangle;html=1;whiteSpace=wrap;connectable=0;overflow=hidden;fillColor=none;top=0;left=0;bottom=0;right=0;pointerEvents=1;align=left;" vertex="1" parent="116">
                    <mxGeometry width="125" height="68" as="geometry">
                        <mxRectangle width="125" height="68" as="alternateBounds"/>
                    </mxGeometry>
                </mxCell>
                <mxCell id="139" value="1" style="edgeStyle=orthogonalEdgeStyle;html=1;" edge="1" parent="1" source="118">
                    <mxGeometry relative="1" as="geometry">
                        <mxPoint x="360" as="targetPoint"/>
                        <Array as="points">
                            <mxPoint x="670" y="30"/>
                            <mxPoint x="360" y="30"/>
                        </Array>
                    </mxGeometry>
                </mxCell>
                <mxCell id="152" value="1" style="edgeStyle=orthogonalEdgeStyle;html=1;entryX=0.005;entryY=0.399;entryDx=0;entryDy=0;entryPerimeter=0;startArrow=none;" edge="1" parent="1" source="153" target="143">
                    <mxGeometry relative="1" as="geometry"/>
                </mxCell>
                <mxCell id="118" value="Email" style="shape=table;startSize=30;container=1;collapsible=0;childLayout=tableLayout;" vertex="1" parent="1">
                    <mxGeometry x="600" y="80" width="140" height="140" as="geometry"/>
                </mxCell>
                <mxCell id="119" value="" style="shape=tableRow;horizontal=0;startSize=0;swimlaneHead=0;swimlaneBody=0;top=0;left=0;bottom=0;right=0;collapsible=0;dropTarget=0;fillColor=none;points=[[0,0.5],[1,0.5]];portConstraint=eastwest;" vertex="1" parent="118">
                    <mxGeometry y="30" width="140" height="40" as="geometry"/>
                </mxCell>
                <mxCell id="120" value="- _value: None" style="shape=partialRectangle;html=1;whiteSpace=wrap;connectable=0;overflow=hidden;fillColor=none;top=0;left=0;bottom=0;right=0;pointerEvents=1;align=left;" vertex="1" parent="119">
                    <mxGeometry width="140" height="40" as="geometry">
                        <mxRectangle width="140" height="40" as="alternateBounds"/>
                    </mxGeometry>
                </mxCell>
                <mxCell id="121" value="" style="shape=tableRow;horizontal=0;startSize=0;swimlaneHead=0;swimlaneBody=0;top=0;left=0;bottom=0;right=0;collapsible=0;dropTarget=0;fillColor=none;points=[[0,0.5],[1,0.5]];portConstraint=eastwest;" vertex="1" parent="118">
                    <mxGeometry y="70" width="140" height="70" as="geometry"/>
                </mxCell>
                <mxCell id="122" value="- __init__(value): None&lt;br&gt;+ value&lt;br&gt;+ value(value)&lt;br&gt;+ __str__: str" style="shape=partialRectangle;html=1;whiteSpace=wrap;connectable=0;overflow=hidden;fillColor=none;top=0;left=0;bottom=0;right=0;pointerEvents=1;align=left;" vertex="1" parent="121">
                    <mxGeometry width="140" height="70" as="geometry">
                        <mxRectangle width="140" height="70" as="alternateBounds"/>
                    </mxGeometry>
                </mxCell>
                <mxCell id="140" style="edgeStyle=orthogonalEdgeStyle;html=1;" edge="1" parent="1" source="123">
                    <mxGeometry relative="1" as="geometry">
                        <mxPoint x="360" as="targetPoint"/>
                        <Array as="points">
                            <mxPoint x="65" y="30"/>
                            <mxPoint x="360" y="30"/>
                        </Array>
                    </mxGeometry>
                </mxCell>
                <mxCell id="123" value="Name" style="shape=table;startSize=30;container=1;collapsible=0;childLayout=tableLayout;" vertex="1" parent="1">
                    <mxGeometry x="10" y="80" width="110" height="130" as="geometry"/>
                </mxCell>
                <mxCell id="124" value="" style="shape=tableRow;horizontal=0;startSize=0;swimlaneHead=0;swimlaneBody=0;top=0;left=0;bottom=0;right=0;collapsible=0;dropTarget=0;fillColor=none;points=[[0,0.5],[1,0.5]];portConstraint=eastwest;" vertex="1" parent="123">
                    <mxGeometry y="30" width="110" height="33" as="geometry"/>
                </mxCell>
                <mxCell id="125" value="- _value: None" style="shape=partialRectangle;html=1;whiteSpace=wrap;connectable=0;overflow=hidden;fillColor=none;top=0;left=0;bottom=0;right=0;pointerEvents=1;align=left;" vertex="1" parent="124">
                    <mxGeometry width="110" height="33" as="geometry">
                        <mxRectangle width="110" height="33" as="alternateBounds"/>
                    </mxGeometry>
                </mxCell>
                <mxCell id="126" value="" style="shape=tableRow;horizontal=0;startSize=0;swimlaneHead=0;swimlaneBody=0;top=0;left=0;bottom=0;right=0;collapsible=0;dropTarget=0;fillColor=none;points=[[0,0.5],[1,0.5]];portConstraint=eastwest;" vertex="1" parent="123">
                    <mxGeometry y="63" width="110" height="67" as="geometry"/>
                </mxCell>
                <mxCell id="127" value="&lt;div style=&quot;&quot;&gt;&lt;span style=&quot;background-color: initial;&quot;&gt;- __init__&lt;/span&gt;&lt;/div&gt;&lt;div style=&quot;&quot;&gt;&lt;span style=&quot;background-color: initial;&quot;&gt;+ value&lt;/span&gt;&lt;/div&gt;&lt;div style=&quot;&quot;&gt;&lt;span style=&quot;background-color: initial;&quot;&gt;- value: str&lt;/span&gt;&lt;/div&gt;&lt;div style=&quot;&quot;&gt;&lt;span style=&quot;background-color: initial;&quot;&gt;+ __str__: str&lt;/span&gt;&lt;/div&gt;" style="shape=partialRectangle;html=1;whiteSpace=wrap;connectable=0;overflow=hidden;fillColor=none;top=0;left=0;bottom=0;right=0;pointerEvents=1;align=left;" vertex="1" parent="126">
                    <mxGeometry width="110" height="67" as="geometry">
                        <mxRectangle width="110" height="67" as="alternateBounds"/>
                    </mxGeometry>
                </mxCell>
                <mxCell id="136" value="" style="rhombus;whiteSpace=wrap;html=1;" vertex="1" parent="1">
                    <mxGeometry x="342.5" y="290" width="20" height="20" as="geometry"/>
                </mxCell>
                <mxCell id="143" value="WrongEmail(Exception)" style="shape=table;startSize=30;container=1;collapsible=0;childLayout=tableLayout;" vertex="1" parent="1">
                    <mxGeometry x="800" y="130" width="160" height="50" as="geometry"/>
                </mxCell>
                <mxCell id="144" value="" style="shape=tableRow;horizontal=0;startSize=0;swimlaneHead=0;swimlaneBody=0;top=0;left=0;bottom=0;right=0;collapsible=0;dropTarget=0;fillColor=none;points=[[0,0.5],[1,0.5]];portConstraint=eastwest;" vertex="1" parent="143">
                    <mxGeometry y="30" width="160" height="20" as="geometry"/>
                </mxCell>
                <mxCell id="145" value="" style="shape=partialRectangle;html=1;whiteSpace=wrap;connectable=0;overflow=hidden;fillColor=none;top=0;left=0;bottom=0;right=0;pointerEvents=1;" vertex="1" parent="144">
                    <mxGeometry width="160" height="20" as="geometry">
                        <mxRectangle width="160" height="20" as="alternateBounds"/>
                    </mxGeometry>
                </mxCell>
                <mxCell id="146" value="WrongPhoneNumber(Exception)" style="shape=table;startSize=30;container=1;collapsible=0;childLayout=tableLayout;" vertex="1" parent="1">
                    <mxGeometry x="50" y="-50" width="180" height="50" as="geometry"/>
                </mxCell>
                <mxCell id="147" value="" style="shape=tableRow;horizontal=0;startSize=0;swimlaneHead=0;swimlaneBody=0;top=0;left=0;bottom=0;right=0;collapsible=0;dropTarget=0;fillColor=none;points=[[0,0.5],[1,0.5]];portConstraint=eastwest;" vertex="1" parent="146">
                    <mxGeometry y="30" width="180" height="20" as="geometry"/>
                </mxCell>
                <mxCell id="148" value="" style="shape=partialRectangle;html=1;whiteSpace=wrap;connectable=0;overflow=hidden;fillColor=none;top=0;left=0;bottom=0;right=0;pointerEvents=1;" vertex="1" parent="147">
                    <mxGeometry width="180" height="20" as="geometry">
                        <mxRectangle width="180" height="20" as="alternateBounds"/>
                    </mxGeometry>
                </mxCell>
                <mxCell id="149" value="WrongBirthday(Exception)" style="shape=table;startSize=30;container=1;collapsible=0;childLayout=tableLayout;" vertex="1" parent="1">
                    <mxGeometry x="475" y="-50" width="160" height="50" as="geometry"/>
                </mxCell>
                <mxCell id="150" value="" style="shape=tableRow;horizontal=0;startSize=0;swimlaneHead=0;swimlaneBody=0;top=0;left=0;bottom=0;right=0;collapsible=0;dropTarget=0;fillColor=none;points=[[0,0.5],[1,0.5]];portConstraint=eastwest;" vertex="1" parent="149">
                    <mxGeometry y="30" width="160" height="20" as="geometry"/>
                </mxCell>
                <mxCell id="151" value="" style="shape=partialRectangle;html=1;whiteSpace=wrap;connectable=0;overflow=hidden;fillColor=none;top=0;left=0;bottom=0;right=0;pointerEvents=1;" vertex="1" parent="150">
                    <mxGeometry width="160" height="20" as="geometry">
                        <mxRectangle width="160" height="20" as="alternateBounds"/>
                    </mxGeometry>
                </mxCell>
                <mxCell id="153" value="" style="rhombus;whiteSpace=wrap;html=1;" vertex="1" parent="1">
                    <mxGeometry x="740" y="147.5" width="10" height="5" as="geometry"/>
                </mxCell>
                <mxCell id="156" value="" style="shape=waypoint;sketch=0;fillStyle=solid;size=6;pointerEvents=1;points=[];fillColor=none;resizable=0;rotatable=0;perimeter=centerPerimeter;snapToPoint=1;" vertex="1" parent="1">
                    <mxGeometry x="735" y="140" width="20" height="20" as="geometry"/>
                </mxCell>
                <mxCell id="159" value="1" style="edgeStyle=orthogonalEdgeStyle;html=1;entryX=0.531;entryY=1;entryDx=0;entryDy=0;entryPerimeter=0;startArrow=none;exitX=1;exitY=0.5;exitDx=0;exitDy=0;" edge="1" parent="1" source="164" target="150">
                    <mxGeometry relative="1" as="geometry">
                        <mxPoint x="530.0000000000002" y="135" as="sourcePoint"/>
                        <Array as="points">
                            <mxPoint x="560" y="131"/>
                        </Array>
                    </mxGeometry>
                </mxCell>
                <mxCell id="163" style="edgeStyle=orthogonalEdgeStyle;html=1;entryX=0.523;entryY=1.009;entryDx=0;entryDy=0;entryPerimeter=0;startArrow=none;" edge="1" parent="1" source="170" target="147">
                    <mxGeometry relative="1" as="geometry">
                        <Array as="points">
                            <mxPoint x="144" y="125"/>
                        </Array>
                    </mxGeometry>
                </mxCell>
                <mxCell id="165" value="" style="edgeStyle=orthogonalEdgeStyle;html=1;entryX=0.531;entryY=1;entryDx=0;entryDy=0;entryPerimeter=0;startArrow=none;exitX=1;exitY=0.5;exitDx=0;exitDy=0;endArrow=none;" edge="1" parent="1" source="114" target="164">
                    <mxGeometry relative="1" as="geometry">
                        <mxPoint x="524.9999999999998" y="131.00000000000023" as="sourcePoint"/>
                        <mxPoint x="559.96" as="targetPoint"/>
                        <Array as="points"/>
                    </mxGeometry>
                </mxCell>
                <mxCell id="164" value="" style="rhombus;whiteSpace=wrap;html=1;" vertex="1" parent="1">
                    <mxGeometry x="525" y="126" width="10" height="10" as="geometry"/>
                </mxCell>
                <mxCell id="166" value="" style="shape=waypoint;sketch=0;fillStyle=solid;size=6;pointerEvents=1;points=[];fillColor=none;resizable=0;rotatable=0;perimeter=centerPerimeter;snapToPoint=1;" vertex="1" parent="1">
                    <mxGeometry x="520" y="121" width="20" height="20" as="geometry"/>
                </mxCell>
                <mxCell id="170" value="" style="rhombus;whiteSpace=wrap;html=1;" vertex="1" parent="1">
                    <mxGeometry x="170" y="120" width="10" height="10" as="geometry"/>
                </mxCell>
                <mxCell id="172" value="" style="shape=waypoint;sketch=0;fillStyle=solid;size=6;pointerEvents=1;points=[];fillColor=none;resizable=0;rotatable=0;perimeter=centerPerimeter;snapToPoint=1;" vertex="1" parent="1">
                    <mxGeometry x="165" y="115" width="20" height="20" as="geometry"/>
                </mxCell>
                <mxCell id="173" value="Notebook" style="shape=table;startSize=30;container=1;collapsible=0;childLayout=tableLayout;" vertex="1" parent="1">
                    <mxGeometry x="-100" y="310" width="220" height="167" as="geometry"/>
                </mxCell>
                <mxCell id="174" value="" style="shape=tableRow;horizontal=0;startSize=0;swimlaneHead=0;swimlaneBody=0;top=0;left=0;bottom=0;right=0;collapsible=0;dropTarget=0;fillColor=none;points=[[0,0.5],[1,0.5]];portConstraint=eastwest;" vertex="1" parent="173">
                    <mxGeometry y="30" width="220" height="30" as="geometry"/>
                </mxCell>
                <mxCell id="175" value="- notes: str" style="shape=partialRectangle;html=1;whiteSpace=wrap;connectable=0;overflow=hidden;fillColor=none;top=0;left=0;bottom=0;right=0;pointerEvents=1;align=left;" vertex="1" parent="174">
                    <mxGeometry width="220" height="30" as="geometry">
                        <mxRectangle width="220" height="30" as="alternateBounds"/>
                    </mxGeometry>
                </mxCell>
                <mxCell id="176" value="" style="shape=tableRow;horizontal=0;startSize=0;swimlaneHead=0;swimlaneBody=0;top=0;left=0;bottom=0;right=0;collapsible=0;dropTarget=0;fillColor=none;points=[[0,0.5],[1,0.5]];portConstraint=eastwest;" vertex="1" parent="173">
                    <mxGeometry y="60" width="220" height="107" as="geometry"/>
                </mxCell>
                <mxCell id="177" value="+ add_note(*parameters): str&lt;br&gt;+ view_note(*parameters): str&lt;br&gt;+ show_all_notes: str&lt;br&gt;+ edit_note(*parameters): str&lt;br&gt;+ delete_note(*parameters): str&lt;br&gt;- save_to_file(filename)&lt;br&gt;- load_from_file(filename)" style="shape=partialRectangle;html=1;whiteSpace=wrap;connectable=0;overflow=hidden;fillColor=none;top=0;left=0;bottom=0;right=0;pointerEvents=1;align=left;" vertex="1" parent="176">
                    <mxGeometry width="220" height="107" as="geometry">
                        <mxRectangle width="220" height="107" as="alternateBounds"/>
                    </mxGeometry>
                </mxCell>
                <mxCell id="180" value="" style="edgeStyle=orthogonalEdgeStyle;html=1;entryX=0.476;entryY=0.996;entryDx=0;entryDy=0;entryPerimeter=0;endArrow=none;" edge="1" parent="1" source="78" target="179">
                    <mxGeometry relative="1" as="geometry">
                        <mxPoint x="4.720000000000027" y="476.5720000000001" as="targetPoint"/>
                        <mxPoint x="5" y="590" as="sourcePoint"/>
                    </mxGeometry>
                </mxCell>
                <mxCell id="179" value="" style="rhombus;whiteSpace=wrap;html=1;" vertex="1" parent="1">
                    <mxGeometry y="580" width="10" height="10" as="geometry"/>
                </mxCell>
            </root>
        </mxGraphModel>
    </diagram>
</mxfile>